Urbanist-Black.ufo
<glyph name="exclam" format="2">
  <advance width="458"/>
  <unicode hex="0021"/>
  <outline>
    <contour>
      <point x="104" y="420" type="line"/>
      <point x="354" y="420" type="line"/>
      <point x="354" y="1400" type="line"/>
      <point x="104" y="1400" type="line"/>
    </contour>
    <contour>
      <point x="230" y="-26" type="curve" smooth="yes"/>
      <point x="312" y="-26"/>
      <point x="378" y="40"/>
      <point x="378" y="126" type="curve" smooth="yes"/>
      <point x="378" y="208"/>
      <point x="312" y="274"/>
      <point x="230" y="274" type="curve" smooth="yes"/>
      <point x="146" y="274"/>
      <point x="80" y="208"/>
      <point x="80" y="126" type="curve" smooth="yes"/>
      <point x="80" y="40"/>
      <point x="146" y="-26"/>
    </contour>
  </outline>
</glyph>
<glyph name="numbersign" format="2">
  <advance width="1606"/>
  <unicode hex="0023"/>
  <outline>
    <contour>
      <point x="1448" y="850" type="line"/>
      <point x="1526" y="1140" type="line"/>
      <point x="1378" y="1140" type="line"/>
      <point x="1446" y="1400" type="line"/>
      <point x="1146" y="1400" type="line"/>
      <point x="1078" y="1140" type="line"/>
      <point x="764" y="1140" type="line"/>
      <point x="834" y="1400" type="line"/>
      <point x="534" y="1400" type="line"/>
      <point x="464" y="1140" type="line"/>
      <point x="316" y="1140" type="line"/>
      <point x="238" y="850" type="line"/>
      <point x="388" y="850" type="line"/>
      <point x="306" y="550" type="line"/>
      <point x="158" y="550" type="line"/>
      <point x="80" y="260" type="line"/>
      <point x="228" y="260" type="line"/>
      <point x="160" y="0" type="line"/>
      <point x="460" y="0" type="line"/>
      <point x="528" y="260" type="line"/>
      <point x="842" y="260" type="line"/>
      <point x="772" y="0" type="line"/>
      <point x="1072" y="0" type="line"/>
      <point x="1142" y="260" type="line"/>
      <point x="1290" y="260" type="line"/>
      <point x="1368" y="550" type="line"/>
      <point x="1218" y="550" type="line"/>
      <point x="1300" y="850" type="line"/>
    </contour>
    <contour>
      <point x="918" y="550" type="line"/>
      <point x="606" y="550" type="line"/>
      <point x="688" y="850" type="line"/>
      <point x="1000" y="850" type="line"/>
    </contour>
  </outline>
</glyph>
<glyph name="parenleft" format="2">
  <advance width="760"/>
  <unicode hex="0028"/>
  <outline>
    <contour>
      <point x="380" y="-112" type="curve"/>
      <point x="680" y="-112" type="line"/>
      <point x="548" y="40"/>
      <point x="380" y="332"/>
      <point x="380" y="644" type="curve" smooth="yes"/>
      <point x="380" y="882"/>
      <point x="558" y="1338"/>
      <point x="680" y="1400" type="curve"/>
      <point x="380" y="1400" type="line"/>
      <point x="216" y="1340"/>
      <point x="80" y="872"/>
      <point x="80" y="644" type="curve" smooth="yes"/>
      <point x="80" y="326"/>
      <point x="170" y="98"/>
    </contour>
  </outline>
</glyph>
<glyph name="parenright" format="2">
  <advance width="760"/>
  <unicode hex="0029"/>
  <outline>
    <contour>
      <point x="80" y="-112" type="curve"/>
      <point x="380" y="-112" type="line"/>
      <point x="590" y="98"/>
      <point x="680" y="326"/>
      <point x="680" y="644" type="curve" smooth="yes"/>
      <point x="680" y="872"/>
      <point x="544" y="1340"/>
      <point x="380" y="1400" type="curve"/>
      <point x="80" y="1400" type="line"/>
      <point x="202" y="1338"/>
      <point x="380" y="882"/>
      <point x="380" y="644" type="curve" smooth="yes"/>
      <point x="380" y="332"/>
      <point x="212" y="40"/>
    </contour>
  </outline>
</glyph>
<glyph name="asterisk" format="2">
  <advance width="764"/>
  <unicode hex="002A"/>
  <outline>
    <contour>
      <point x="294" y="826" type="line"/>
      <point x="382" y="946" type="line"/>
      <point x="468" y="826" type="line"/>
      <point x="630" y="944" type="line"/>
      <point x="542" y="1064" type="line"/>
      <point x="684" y="1108" type="line"/>
      <point x="622" y="1300" type="line"/>
      <point x="482" y="1254" type="line"/>
      <point x="482" y="1400" type="line"/>
      <point x="282" y="1400" type="line"/>
      <point x="282" y="1254" type="line"/>
      <point x="140" y="1300" type="line"/>
      <point x="80" y="1108" type="line"/>
      <point x="220" y="1064" type="line"/>
      <point x="132" y="944" type="line"/>
    </contour>
  </outline>
</glyph>
<glyph name="plus" format="2">
  <advance width="1160"/>
  <unicode hex="002B"/>
  <outline>
    <contour>
      <point x="430" y="250" type="line"/>
      <point x="730" y="250" type="line"/>
      <point x="730" y="600" type="line"/>
      <point x="1080" y="600" type="line"/>
      <point x="1080" y="900" type="line"/>
      <point x="730" y="900" type="line"/>
      <point x="730" y="1250" type="line"/>
      <point x="430" y="1250" type="line"/>
      <point x="430" y="900" type="line"/>
      <point x="80" y="900" type="line"/>
      <point x="80" y="600" type="line"/>
      <point x="430" y="600" type="line"/>
    </contour>
  </outline>
</glyph>
<glyph name="comma" format="2">
  <advance width="522"/>
  <unicode hex="002C"/>
  <outline>
    <contour>
      <point x="80" y="-112" type="line"/>
      <point x="280" y="-112" type="line"/>
      <point x="442" y="226" type="line"/>
      <point x="142" y="226" type="line"/>
    </contour>
  </outline>
</glyph>
<glyph name="hyphen" format="2">
  <advance width="880"/>
  <unicode hex="002D"/>
  <outline>
    <contour>
      <point x="120" y="650" type="line"/>
      <point x="120" y="350" type="line"/>
      <point x="760" y="350" type="line"/>
      <point x="760" y="650" type="line"/>
    </contour>
  </outline>
</glyph>
<glyph name="three" format="2">
  <advance width="1044"/>
  <unicode hex="0033"/>
  <outline>
    <contour>
      <point x="522" y="-26" type="curve" smooth="yes"/>
      <point x="776" y="-26"/>
      <point x="984" y="182"/>
      <point x="984" y="436" type="curve" smooth="yes"/>
      <point x="984" y="556"/>
      <point x="930" y="704"/>
      <point x="826" y="744" type="curve"/>
      <point x="906" y="786"/>
      <point x="946" y="902"/>
      <point x="946" y="996" type="curve" smooth="yes"/>
      <point x="946" y="1236"/>
      <point x="746" y="1428"/>
      <point x="512" y="1428" type="curve" smooth="yes"/>
      <point x="274" y="1428"/>
      <point x="60" y="1234"/>
      <point x="60" y="996" type="curve"/>
      <point x="360" y="996" type="line"/>
      <point x="360" y="1068"/>
      <point x="442" y="1128"/>
      <point x="516" y="1128" type="curve" smooth="yes"/>
      <point x="588" y="1128"/>
      <point x="646" y="1068"/>
      <point x="646" y="996" type="curve" smooth="yes"/>
      <point x="646" y="896"/>
      <point x="556" y="846"/>
      <point x="410" y="846" type="curve"/>
      <point x="410" y="618" type="line"/>
      <point x="576" y="618"/>
      <point x="684" y="558"/>
      <point x="684" y="436" type="curve" smooth="yes"/>
      <point x="684" y="348"/>
      <point x="610" y="274"/>
      <point x="522" y="274" type="curve" smooth="yes"/>
      <point x="434" y="274"/>
      <point x="360" y="348"/>
      <point x="360" y="436" type="curve"/>
      <point x="60" y="436" type="line"/>
      <point x="60" y="180"/>
      <point x="270" y="-26"/>
    </contour>
  </outline>
</glyph>
<glyph name="six" format="2">
  <advance width="1200"/>
  <unicode hex="0036"/>
  <outline>
    <contour>
      <point x="578" y="-26" type="curve" smooth="yes"/>
      <point x="856" y="-26"/>
      <point x="1080" y="200"/>
      <point x="1080" y="474" type="curve" smooth="yes"/>
      <point x="1080" y="730"/>
      <point x="890" y="942"/>
      <point x="636" y="972" type="curve"/>
      <point x="884" y="1400" type="line"/>
      <point x="536" y="1400" type="line"/>
      <point x="146" y="724" type="line" smooth="yes"/>
      <point x="100" y="646"/>
      <point x="80" y="560"/>
      <point x="80" y="474" type="curve" smooth="yes"/>
      <point x="80" y="198"/>
      <point x="306" y="-26"/>
    </contour>
    <contour>
      <point x="578" y="274" type="curve" smooth="yes"/>
      <point x="476" y="274"/>
      <point x="380" y="358"/>
      <point x="380" y="472" type="curve" smooth="yes"/>
      <point x="380" y="576"/>
      <point x="460" y="674"/>
      <point x="580" y="674" type="curve" smooth="yes"/>
      <point x="694" y="674"/>
      <point x="780" y="582"/>
      <point x="780" y="472" type="curve" smooth="yes"/>
      <point x="780" y="372"/>
      <point x="694" y="274"/>
    </contour>
  </outline>
</glyph>
<glyph name="seven" format="2">
  <advance width="1196"/>
  <unicode hex="0037"/>
  <outline>
    <contour>
      <point x="154" y="0" type="line"/>
      <point x="500" y="0" type="line"/>
      <point x="1136" y="1100" type="line"/>
      <point x="1136" y="1400" type="line"/>
      <point x="100" y="1400" type="line"/>
      <point x="100" y="1100" type="line"/>
      <point x="788" y="1100" type="line"/>
    </contour>
  </outline>
</glyph>
<glyph name="less" format="2">
  <advance width="1160"/>
  <unicode hex="003C"/>
  <outline>
    <contour>
      <point x="1080" y="214" type="line"/>
      <point x="1080" y="526" type="line"/>
      <point x="294" y="750" type="line"/>
      <point x="1080" y="974" type="line"/>
      <point x="1080" y="1286" type="line"/>
      <point x="80" y="1000" type="line"/>
      <point x="80" y="498" type="line"/>
    </contour>
  </outline>
</glyph>
<glyph name="equal" format="2">
  <advance width="1160"/>
  <unicode hex="003D"/>
  <outline>
    <contour>
      <point x="80" y="378" type="line"/>
      <point x="1080" y="378" type="line"/>
      <point x="1080" y="678" type="line"/>
      <point x="80" y="678" type="line"/>
    </contour>
    <contour>
      <point x="80" y="822" type="line"/>
      <point x="1080" y="822" type="line"/>
      <point x="1080" y="1122" type="line"/>
      <point x="80" y="1122" type="line"/>
    </contour>
  </outline>
</glyph>
<glyph name="greater" format="2">
  <advance width="1160"/>
  <unicode hex="003E"/>
  <outline>
    <contour>
      <point x="80" y="226" type="line"/>
      <point x="1080" y="498" type="line"/>
      <point x="1080" y="1000" type="line"/>
      <point x="80" y="1274" type="line"/>
      <point x="80" y="962" type="line"/>
      <point x="866" y="750" type="line"/>
      <point x="80" y="538" type="line"/>
    </contour>
  </outline>
</glyph>
<glyph name="at" format="2">
  <advance width="1870"/>
  <unicode hex="0040"/>
  <outline>
    <contour>
      <point x="966" y="-276" type="curve"/>
      <point x="966" y="-36" type="line"/>
      <point x="614" y="-36"/>
      <point x="320" y="182"/>
      <point x="320" y="542" type="curve" smooth="yes"/>
      <point x="320" y="894"/>
      <point x="546" y="1146"/>
      <point x="906" y="1146" type="curve" smooth="yes"/>
      <point x="1402" y="1146"/>
      <point x="1550" y="934"/>
      <point x="1550" y="354" type="curve" smooth="yes"/>
      <point x="1550" y="290"/>
      <point x="1518" y="238"/>
      <point x="1454" y="238" type="curve" smooth="yes"/>
      <point x="1390" y="238"/>
      <point x="1358" y="290"/>
      <point x="1358" y="354" type="curve" smooth="yes"/>
      <point x="1358" y="844" type="line"/>
      <point x="1152" y="964" type="line"/>
      <point x="1152" y="910" type="line"/>
      <point x="1088" y="966"/>
      <point x="1004" y="1000"/>
      <point x="902" y="1000" type="curve" smooth="yes"/>
      <point x="658" y="1000"/>
      <point x="460" y="804"/>
      <point x="460" y="560" type="curve" smooth="yes"/>
      <point x="460" y="316"/>
      <point x="658" y="118"/>
      <point x="902" y="118" type="curve" smooth="yes"/>
      <point x="1002" y="118"/>
      <point x="1086" y="152"/>
      <point x="1148" y="208" type="curve"/>
      <point x="1204" y="84"/>
      <point x="1310" y="-2"/>
      <point x="1454" y="-2" type="curve" smooth="yes"/>
      <point x="1650" y="-2"/>
      <point x="1790" y="158"/>
      <point x="1790" y="354" type="curve" smooth="yes"/>
      <point x="1790" y="1072"/>
      <point x="1508" y="1386"/>
      <point x="906" y="1386" type="curve" smooth="yes"/>
      <point x="418" y="1386"/>
      <point x="80" y="1032"/>
      <point x="80" y="542" type="curve" smooth="yes"/>
      <point x="80" y="60"/>
      <point x="466" y="-276"/>
    </contour>
    <contour>
      <point x="902" y="318" type="curve" smooth="yes"/>
      <point x="770" y="318"/>
      <point x="660" y="428"/>
      <point x="660" y="560" type="curve" smooth="yes"/>
      <point x="660" y="684"/>
      <point x="762" y="800"/>
      <point x="902" y="800" type="curve" smooth="yes"/>
      <point x="1032" y="800"/>
      <point x="1090" y="694"/>
      <point x="1090" y="560" type="curve" smooth="yes"/>
      <point x="1090" y="434"/>
      <point x="1034" y="318"/>
    </contour>
  </outline>
</glyph>
<glyph name="A" format="2">
  <advance width="1516"/>
  <unicode hex="0041"/>
  <outline>
    <contour>
      <point x="588" y="1400" type="line"/>
      <point x="80" y="0" type="line"/>
      <point x="398" y="0" type="line"/>
      <point x="478" y="220" type="line"/>
      <point x="1036" y="220" type="line"/>
      <point x="1116" y="0" type="line"/>
      <point x="1434" y="0" type="line"/>
      <point x="926" y="1400" type="line"/>
    </contour>
    <contour>
      <point x="588" y="520" type="line"/>
      <point x="756" y="984" type="line"/>
      <point x="926" y="520" type="line"/>
    </contour>
  </outline>
</glyph>
<glyph name="B" format="2">
  <advance width="1186"/>
  <unicode hex="0042"/>
  <outline>
    <contour>
      <point x="120" y="0" type="line"/>
      <point x="704" y="0" type="line" smooth="yes"/>
      <point x="936" y="0"/>
      <point x="1126" y="170"/>
      <point x="1126" y="402" type="curve" smooth="yes"/>
      <point x="1126" y="526"/>
      <point x="1108" y="710"/>
      <point x="930" y="734" type="curve"/>
      <point x="1034" y="782"/>
      <point x="1060" y="906"/>
      <point x="1060" y="994" type="curve" smooth="yes"/>
      <point x="1060" y="1228"/>
      <point x="880" y="1400"/>
      <point x="650" y="1400" type="curve" smooth="yes"/>
      <point x="120" y="1400" type="line"/>
    </contour>
    <contour>
      <point x="420" y="254" type="line"/>
      <point x="420" y="594" type="line"/>
      <point x="672" y="594" type="line" smooth="yes"/>
      <point x="776" y="594"/>
      <point x="860" y="516"/>
      <point x="860" y="424" type="curve" smooth="yes"/>
      <point x="860" y="332"/>
      <point x="776" y="254"/>
      <point x="672" y="254" type="curve" smooth="yes"/>
    </contour>
    <contour>
      <point x="420" y="844" type="line"/>
      <point x="420" y="1144" type="line"/>
      <point x="614" y="1144" type="line" smooth="yes"/>
      <point x="694" y="1144"/>
      <point x="760" y="1076"/>
      <point x="760" y="994" type="curve" smooth="yes"/>
      <point x="760" y="912"/>
      <point x="694" y="844"/>
      <point x="614" y="844" type="curve" smooth="yes"/>
    </contour>
  </outline>
</glyph>
<glyph name="D" format="2">
  <advance width="1264"/>
  <unicode hex="0044"/>
  <outline>
    <contour>
      <point x="80" y="0" type="line"/>
      <point x="544" y="0" type="line" smooth="yes"/>
      <point x="930" y="0"/>
      <point x="1244" y="314"/>
      <point x="1244" y="700" type="curve" smooth="yes"/>
      <point x="1244" y="1086"/>
      <point x="930" y="1400"/>
      <point x="544" y="1400" type="curve" smooth="yes"/>
      <point x="80" y="1400" type="line"/>
    </contour>
    <contour>
      <point x="380" y="300" type="line"/>
      <point x="380" y="1100" type="line"/>
      <point x="544" y="1100" type="line" smooth="yes"/>
      <point x="762" y="1100"/>
      <point x="944" y="920"/>
      <point x="944" y="700" type="curve" smooth="yes"/>
      <point x="944" y="478"/>
      <point x="760" y="300"/>
      <point x="544" y="300" type="curve" smooth="yes"/>
    </contour>
  </outline>
</glyph>
<glyph name="E" format="2">
  <advance width="1132"/>
  <unicode hex="0045"/>
  <outline>
    <contour>
      <point x="140" y="0" type="line"/>
      <point x="1032" y="0" type="line"/>
      <point x="1032" y="300" type="line"/>
      <point x="440" y="300" type="line"/>
      <point x="440" y="550" type="line"/>
      <point x="936" y="550" type="line"/>
      <point x="936" y="850" type="line"/>
      <point x="440" y="850" type="line"/>
      <point x="440" y="1100" type="line"/>
      <point x="1032" y="1100" type="line"/>
      <point x="1032" y="1400" type="line"/>
      <point x="140" y="1400" type="line"/>
    </contour>
  </outline>
</glyph>
<glyph name="F" format="2">
  <advance width="972"/>
  <unicode hex="0046"/>
  <outline>
    <contour>
      <point x="80" y="0" type="line"/>
      <point x="380" y="0" type="line"/>
      <point x="380" y="550" type="line"/>
      <point x="816" y="550" type="line"/>
      <point x="816" y="850" type="line"/>
      <point x="380" y="850" type="line"/>
      <point x="380" y="1100" type="line"/>
      <point x="912" y="1100" type="line"/>
      <point x="912" y="1400" type="line"/>
      <point x="80" y="1400" type="line"/>
    </contour>
  </outline>
</glyph>
<glyph name="H" format="2">
  <advance width="1256"/>
  <unicode hex="0048"/>
  <outline>
    <contour>
      <point x="876" y="1400" type="line"/>
      <point x="876" y="866" type="line"/>
      <point x="380" y="866" type="line"/>
      <point x="380" y="1400" type="line"/>
      <point x="80" y="1400" type="line"/>
      <point x="80" y="0" type="line"/>
      <point x="380" y="0" type="line"/>
      <point x="380" y="566" type="line"/>
      <point x="876" y="566" type="line"/>
      <point x="876" y="0" type="line"/>
      <point x="1176" y="0" type="line"/>
      <point x="1176" y="1400" type="line"/>
    </contour>
  </outline>
</glyph>
<glyph name="I" format="2">
  <advance width="460"/>
  <unicode hex="0049"/>
  <outline>
    <contour>
      <point x="80" y="0" type="line"/>
      <point x="380" y="0" type="line"/>
      <point x="380" y="1400" type="line"/>
      <point x="80" y="1400" type="line"/>
    </contour>
  </outline>
</glyph>
<glyph name="K" format="2">
  <advance width="1190"/>
  <unicode hex="004B"/>
  <outline>
    <contour>
      <point x="1170" y="0" type="line"/>
      <point x="616" y="740" type="line"/>
      <point x="1170" y="1400" type="line"/>
      <point x="778" y="1400" type="line"/>
      <point x="380" y="924" type="line"/>
      <point x="380" y="1400" type="line"/>
      <point x="80" y="1400" type="line"/>
      <point x="80" y="0" type="line"/>
      <point x="380" y="0" type="line"/>
      <point x="380" y="458" type="line"/>
      <point x="420" y="506" type="line"/>
      <point x="778" y="0" type="line"/>
    </contour>
  </outline>
</glyph>
<glyph name="L" format="2">
  <advance width="1020"/>
  <unicode hex="004C"/>
  <outline>
    <contour>
      <point x="1000" y="0" type="line"/>
      <point x="80" y="0" type="line"/>
      <point x="80" y="1400" type="line"/>
      <point x="380" y="1400" type="line"/>
      <point x="380" y="300" type="line"/>
      <point x="1000" y="300" type="line"/>
    </contour>
  </outline>
</glyph>
<glyph name="M" format="2">
  <advance width="1844"/>
  <unicode hex="004D"/>
  <outline>
    <contour>
      <point x="80" y="0" type="line"/>
      <point x="386" y="0" type="line"/>
      <point x="532" y="756" type="line"/>
      <point x="818" y="0" type="line"/>
      <point x="1026" y="0" type="line"/>
      <point x="1312" y="756" type="line"/>
      <point x="1458" y="0" type="line"/>
      <point x="1764" y="0" type="line"/>
      <point x="1492" y="1400" type="line"/>
      <point x="1236" y="1400" type="line"/>
      <point x="922" y="574" type="line"/>
      <point x="608" y="1400" type="line"/>
      <point x="352" y="1400" type="line"/>
    </contour>
  </outline>
</glyph>
<glyph name="T" format="2">
  <advance width="1220"/>
  <unicode hex="0054"/>
  <outline>
    <contour>
      <point x="1160" y="1400" type="line"/>
      <point x="60" y="1400" type="line"/>
      <point x="60" y="1100" type="line"/>
      <point x="460" y="1100" type="line"/>
      <point x="460" y="0" type="line"/>
      <point x="760" y="0" type="line"/>
      <point x="760" y="1100" type="line"/>
      <point x="1160" y="1100" type="line"/>
    </contour>
  </outline>
</glyph>
<glyph name="U" format="2">
  <advance width="1298"/>
  <unicode hex="0055"/>
  <outline>
    <contour>
      <point x="650" y="-26" type="curve" smooth="yes"/>
      <point x="986" y="-26"/>
      <point x="1218" y="246"/>
      <point x="1218" y="584" type="curve" smooth="yes"/>
      <point x="1218" y="1400" type="line"/>
      <point x="918" y="1400" type="line"/>
      <point x="918" y="584" type="line" smooth="yes"/>
      <point x="918" y="412"/>
      <point x="822" y="274"/>
      <point x="650" y="274" type="curve" smooth="yes"/>
      <point x="480" y="274"/>
      <point x="380" y="414"/>
      <point x="380" y="584" type="curve" smooth="yes"/>
      <point x="380" y="1400" type="line"/>
      <point x="80" y="1400" type="line"/>
      <point x="80" y="584" type="line" smooth="yes"/>
      <point x="80" y="246"/>
      <point x="314" y="-26"/>
    </contour>
  </outline>
</glyph>
<glyph name="V" format="2">
  <advance width="1444"/>
  <unicode hex="0056"/>
  <outline>
    <contour>
      <point x="528" y="0" type="line"/>
      <point x="916" y="0" type="line"/>
      <point x="1424" y="1400" type="line"/>
      <point x="1106" y="1400" type="line"/>
      <point x="722" y="344" type="line"/>
      <point x="338" y="1400" type="line"/>
      <point x="20" y="1400" type="line"/>
    </contour>
  </outline>
</glyph>
<glyph name="W" format="2">
  <advance width="1848"/>
  <unicode hex="0057"/>
  <outline>
    <contour>
      <point x="402" y="0" type="line"/>
      <point x="740" y="0" type="line"/>
      <point x="924" y="726" type="line"/>
      <point x="1110" y="0" type="line"/>
      <point x="1448" y="0" type="line"/>
      <point x="1804" y="1400" type="line"/>
      <point x="1494" y="1400" type="line"/>
      <point x="1278" y="552" type="line"/>
      <point x="1062" y="1400" type="line"/>
      <point x="786" y="1400" type="line"/>
      <point x="570" y="552" type="line"/>
      <point x="354" y="1400" type="line"/>
      <point x="44" y="1400" type="line"/>
    </contour>
  </outline>
</glyph>
<glyph name="Z" format="2">
  <advance width="1212"/>
  <unicode hex="005A"/>
  <outline>
    <contour>
      <point x="40" y="0" type="line"/>
      <point x="1172" y="0" type="line"/>
      <point x="1172" y="300" type="line"/>
      <point x="446" y="300" type="line"/>
      <point x="1172" y="1100" type="line"/>
      <point x="1172" y="1400" type="line"/>
      <point x="40" y="1400" type="line"/>
      <point x="40" y="1100" type="line"/>
      <point x="766" y="1100" type="line"/>
      <point x="40" y="300" type="line"/>
    </contour>
  </outline>
</glyph>
<glyph name="bracketleft" format="2">
  <advance width="656"/>
  <unicode hex="005B"/>
  <outline>
    <contour>
      <point x="576" y="188" type="line"/>
      <point x="400" y="188" type="line"/>
      <point x="400" y="1100" type="line"/>
      <point x="576" y="1100" type="line"/>
      <point x="576" y="1400" type="line"/>
      <point x="100" y="1400" type="line"/>
      <point x="100" y="-112" type="line"/>
      <point x="576" y="-112" type="line"/>
    </contour>
  </outline>
</glyph>
<glyph name="backslash" format="2">
  <advance width="864"/>
  <unicode hex="005C"/>
  <outline>
    <contour>
      <point x="484" y="-112" type="line"/>
      <point x="784" y="-112" type="line"/>
      <point x="380" y="1400" type="line"/>
      <point x="80" y="1400" type="line"/>
    </contour>
  </outline>
</glyph>
<glyph name="bracketright" format="2">
  <advance width="658"/>
  <unicode hex="005D"/>
  <outline>
    <contour>
      <point x="80" y="-112" type="line"/>
      <point x="558" y="-112" type="line"/>
      <point x="558" y="1400" type="line"/>
      <point x="80" y="1400" type="line"/>
      <point x="80" y="1100" type="line"/>
      <point x="258" y="1100" type="line"/>
      <point x="258" y="188" type="line"/>
      <point x="80" y="188" type="line"/>
    </contour>
  </outline>
</glyph>
<glyph name="a" format="2">
  <advance width="1270"/>
  <unicode hex="0061"/>
  <outline>
    <contour>
      <point x="850" y="1000" type="line"/>
      <point x="850" y="908" type="line"/>
      <point x="788" y="978"/>
      <point x="704" y="1028"/>
      <point x="596" y="1028" type="curve" smooth="yes"/>
      <point x="306" y="1028"/>
      <point x="70" y="792"/>
      <point x="70" y="500" type="curve" smooth="yes"/>
      <point x="70" y="210"/>
      <point x="306" y="-26"/>
      <point x="596" y="-26" type="curve" smooth="yes"/>
      <point x="704" y="-26"/>
      <point x="788" y="24"/>
      <point x="850" y="94" type="curve"/>
      <point x="850" y="0" type="line"/>
      <point x="1150" y="0" type="line"/>
      <point x="1150" y="1000" type="line"/>
    </contour>
    <contour>
      <point x="600" y="262" type="curve" smooth="yes"/>
      <point x="478" y="262"/>
      <point x="378" y="370"/>
      <point x="378" y="500" type="curve" smooth="yes"/>
      <point x="378" y="632"/>
      <point x="478" y="738"/>
      <point x="600" y="738" type="curve" smooth="yes"/>
      <point x="724" y="738"/>
      <point x="824" y="632"/>
      <point x="824" y="500" type="curve" smooth="yes"/>
      <point x="824" y="370"/>
      <point x="724" y="262"/>
    </contour>
  </outline>
</glyph>
<glyph name="b" format="2">
  <advance width="1260"/>
  <unicode hex="0062"/>
  <outline>
    <contour>
      <point x="672" y="1028" type="curve"/>
      <point x="566" y="1028"/>
      <point x="482" y="978"/>
      <point x="420" y="908" type="curve"/>
      <point x="420" y="1500" type="line"/>
      <point x="120" y="1500" type="line"/>
      <point x="120" y="0" type="line"/>
      <point x="420" y="0" type="line"/>
      <point x="420" y="94" type="line"/>
      <point x="482" y="24"/>
      <point x="566" y="-26"/>
      <point x="672" y="-26" type="curve"/>
      <point x="964" y="-26"/>
      <point x="1200" y="210"/>
      <point x="1200" y="502" type="curve"/>
      <point x="1200" y="792"/>
      <point x="964" y="1028"/>
    </contour>
    <contour>
      <point x="668" y="264" type="curve"/>
      <point x="546" y="264"/>
      <point x="446" y="370"/>
      <point x="446" y="502" type="curve"/>
      <point x="446" y="632"/>
      <point x="546" y="740"/>
      <point x="668" y="740" type="curve"/>
      <point x="792" y="740"/>
      <point x="892" y="632"/>
      <point x="892" y="502" type="curve"/>
      <point x="892" y="370"/>
      <point x="792" y="264"/>
    </contour>
  </outline>
</glyph>
<glyph name="d" format="2">
  <advance width="1280"/>
  <unicode hex="0064"/>
  <outline>
    <contour>
      <point x="860" y="1500" type="line"/>
      <point x="860" y="908" type="line"/>
      <point x="798" y="978"/>
      <point x="714" y="1026"/>
      <point x="606" y="1026" type="curve"/>
      <point x="316" y="1026"/>
      <point x="80" y="790"/>
      <point x="80" y="500" type="curve"/>
      <point x="80" y="210"/>
      <point x="316" y="-26"/>
      <point x="606" y="-26" type="curve"/>
      <point x="714" y="-26"/>
      <point x="798" y="22"/>
      <point x="860" y="92" type="curve"/>
      <point x="860" y="0" type="line"/>
      <point x="1160" y="0" type="line"/>
      <point x="1160" y="1500" type="line"/>
    </contour>
    <contour>
      <point x="610" y="262" type="curve"/>
      <point x="488" y="262"/>
      <point x="388" y="368"/>
      <point x="388" y="500" type="curve"/>
      <point x="388" y="632"/>
      <point x="488" y="738"/>
      <point x="610" y="738" type="curve"/>
      <point x="734" y="738"/>
      <point x="834" y="632"/>
      <point x="834" y="500" type="curve"/>
      <point x="834" y="368"/>
      <point x="734" y="262"/>
    </contour>
  </outline>
</glyph>
<glyph name="e" format="2">
  <advance width="1121"/>
  <unicode hex="0065"/>
  <outline>
    <contour>
      <point x="560" y="-26" type="curve" smooth="yes"/>
      <point x="760" y="-26"/>
      <point x="932" y="98"/>
      <point x="1013" y="276" type="curve"/>
      <point x="707" y="347" type="line"/>
      <point x="670" y="302"/>
      <point x="618" y="273"/>
      <point x="560" y="274" type="curve" smooth="yes"/>
      <point x="467" y="276"/>
      <point x="412" y="330"/>
      <point x="384" y="401" type="curve"/>
      <point x="1051" y="401" type="line"/>
      <point x="1111" y="719"/>
      <point x="879" y="1028"/>
      <point x="560" y="1028" type="curve" smooth="yes"/>
      <point x="284" y="1028"/>
      <point x="60" y="792"/>
      <point x="60" y="501" type="curve" smooth="yes"/>
      <point x="60" y="210"/>
      <point x="284" y="-26"/>
    </contour>
    <contour>
      <point x="373" y="621" type="line"/>
      <point x="402" y="707"/>
      <point x="475" y="768"/>
      <point x="560" y="768" type="curve" smooth="yes"/>
      <point x="646" y="768"/>
      <point x="719" y="707"/>
      <point x="748" y="621" type="curve"/>
    </contour>
  </outline>
</glyph>
<glyph name="f" format="2">
  <advance width="802"/>
  <unicode hex="0066"/>
  <outline>
    <contour>
      <point x="454" y="1182" type="line"/>
      <point x="454" y="1206"/>
      <point x="474" y="1224"/>
      <point x="498" y="1224" type="curve"/>
      <point x="514" y="1224"/>
      <point x="524" y="1216"/>
      <point x="528" y="1212" type="curve"/>
      <point x="742" y="1422" type="line"/>
      <point x="678" y="1488"/>
      <point x="590" y="1524"/>
      <point x="498" y="1524" type="curve"/>
      <point x="308" y="1524"/>
      <point x="154" y="1370"/>
      <point x="154" y="1182" type="curve"/>
      <point x="154" y="1000" type="line"/>
      <point x="60" y="1000" type="line"/>
      <point x="60" y="700" type="line"/>
      <point x="154" y="700" type="line"/>
      <point x="154" y="0" type="line"/>
      <point x="454" y="0" type="line"/>
      <point x="454" y="700" type="line"/>
      <point x="680" y="700" type="line"/>
      <point x="680" y="1000" type="line"/>
      <point x="454" y="1000" type="line"/>
    </contour>
  </outline>
</glyph>
<glyph name="g" format="2">
  <advance width="1274"/>
  <unicode hex="0067"/>
  <outline>
    <contour>
      <point x="854" y="1000" type="line"/>
      <point x="854" y="912" type="line"/>
      <point x="794" y="980"/>
      <point x="712" y="1026"/>
      <point x="606" y="1026" type="curve" smooth="yes"/>
      <point x="316" y="1026"/>
      <point x="80" y="790"/>
      <point x="80" y="500" type="curve" smooth="yes"/>
      <point x="80" y="210"/>
      <point x="316" y="-26"/>
      <point x="606" y="-26" type="curve" smooth="yes"/>
      <point x="712" y="-26"/>
      <point x="794" y="20"/>
      <point x="854" y="88" type="curve"/>
      <point x="854" y="-10" type="line" smooth="yes"/>
      <point x="854" y="-140"/>
      <point x="724" y="-198"/>
      <point x="586" y="-198" type="curve" smooth="yes"/>
      <point x="492" y="-198"/>
      <point x="406" y="-146"/>
      <point x="364" y="-56" type="curve"/>
      <point x="90" y="-180" type="line"/>
      <point x="178" y="-370"/>
      <point x="374" y="-500"/>
      <point x="586" y="-500" type="curve" smooth="yes"/>
      <point x="890" y="-500"/>
      <point x="1154" y="-314"/>
      <point x="1154" y="-10" type="curve" smooth="yes"/>
      <point x="1154" y="1000" type="line"/>
    </contour>
    <contour>
      <point x="610" y="262" type="curve" smooth="yes"/>
      <point x="488" y="262"/>
      <point x="388" y="368"/>
      <point x="388" y="500" type="curve" smooth="yes"/>
      <point x="388" y="632"/>
      <point x="488" y="738"/>
      <point x="610" y="738" type="curve" smooth="yes"/>
      <point x="734" y="738"/>
      <point x="834" y="632"/>
      <point x="834" y="500" type="curve" smooth="yes"/>
      <point x="834" y="368"/>
      <point x="734" y="262"/>
    </contour>
  </outline>
</glyph>
<glyph name="j" format="2">
  <advance width="652"/>
  <unicode hex="006A"/>
  <outline>
    <contour>
      <point x="60" y="-500" type="curve"/>
      <point x="322" y="-500"/>
      <point x="532" y="-288"/>
      <point x="532" y="-28" type="curve"/>
      <point x="532" y="1000" type="line"/>
      <point x="232" y="1000" type="line"/>
      <point x="232" y="-28" type="line"/>
      <point x="232" y="-124"/>
      <point x="154" y="-200"/>
      <point x="60" y="-200" type="curve"/>
      <point x="60" y="-200"/>
      <point x="60" y="-500"/>
    </contour>
    <contour>
      <point x="382" y="1100" type="curve"/>
      <point x="464" y="1100"/>
      <point x="532" y="1168"/>
      <point x="532" y="1250" type="curve"/>
      <point x="532" y="1334"/>
      <point x="464" y="1400"/>
      <point x="382" y="1400" type="curve"/>
      <point x="298" y="1400"/>
      <point x="232" y="1334"/>
      <point x="232" y="1250" type="curve"/>
      <point x="232" y="1168"/>
      <point x="298" y="1100"/>
    </contour>
  </outline>
</glyph>
<glyph name="k" format="2">
  <advance width="1158"/>
  <unicode hex="006B"/>
  <outline>
    <contour>
      <point x="1074" y="0" type="line"/>
      <point x="734" y="588" type="line"/>
      <point x="1078" y="1000" type="line"/>
      <point x="686" y="1000" type="line"/>
      <point x="420" y="682" type="line"/>
      <point x="420" y="1500" type="line"/>
      <point x="120" y="1500" type="line"/>
      <point x="120" y="0" type="line"/>
      <point x="420" y="0" type="line"/>
      <point x="420" y="216" type="line"/>
      <point x="528" y="344" type="line"/>
      <point x="728" y="0" type="line"/>
    </contour>
  </outline>
</glyph>
<glyph name="l" format="2">
  <advance width="500"/>
  <unicode hex="006C"/>
  <outline>
    <contour>
      <point x="100" y="0" type="line"/>
      <point x="400" y="0" type="line"/>
      <point x="400" y="1500" type="line"/>
      <point x="100" y="1500" type="line"/>
    </contour>
  </outline>
</glyph>
<glyph name="n" format="2">
  <advance width="1216"/>
  <unicode hex="006E"/>
  <outline>
    <contour>
      <point x="1136" y="506" type="line"/>
      <point x="1134" y="794"/>
      <point x="960" y="1028"/>
      <point x="672" y="1028" type="curve"/>
      <point x="564" y="1028"/>
      <point x="482" y="980"/>
      <point x="420" y="908" type="curve"/>
      <point x="420" y="1000" type="line"/>
      <point x="120" y="1000" type="line"/>
      <point x="120" y="0" type="line"/>
      <point x="420" y="0" type="line"/>
      <point x="420" y="502" type="line"/>
      <point x="420" y="632"/>
      <point x="488" y="740"/>
      <point x="618" y="740" type="curve"/>
      <point x="750" y="740"/>
      <point x="836" y="632"/>
      <point x="836" y="502" type="curve"/>
      <point x="836" y="0" type="line"/>
      <point x="1136" y="0" type="line"/>
    </contour>
  </outline>
</glyph>
<glyph name="p" format="2">
  <advance width="1278"/>
  <unicode hex="0070"/>
  <outline>
    <contour>
      <point x="420" y="-500" type="line"/>
      <point x="420" y="92" type="line"/>
      <point x="482" y="22"/>
      <point x="564" y="-28"/>
      <point x="672" y="-28" type="curve"/>
      <point x="964" y="-28"/>
      <point x="1198" y="208"/>
      <point x="1198" y="500" type="curve"/>
      <point x="1198" y="790"/>
      <point x="964" y="1026"/>
      <point x="672" y="1026" type="curve"/>
      <point x="564" y="1026"/>
      <point x="482" y="976"/>
      <point x="420" y="906" type="curve"/>
      <point x="420" y="1000" type="line"/>
      <point x="120" y="1000" type="line"/>
      <point x="120" y="-500" type="line"/>
    </contour>
    <contour>
      <point x="668" y="738" type="curve"/>
      <point x="792" y="738"/>
      <point x="892" y="630"/>
      <point x="892" y="500" type="curve"/>
      <point x="892" y="368"/>
      <point x="792" y="262"/>
      <point x="668" y="262" type="curve"/>
      <point x="546" y="262"/>
      <point x="446" y="368"/>
      <point x="446" y="500" type="curve"/>
      <point x="446" y="630"/>
      <point x="546" y="738"/>
    </contour>
  </outline>
</glyph>
<glyph name="u" format="2">
  <advance width="1226"/>
  <unicode hex="0075"/>
  <outline>
    <contour>
      <point x="90" y="496" type="line"/>
      <point x="92" y="206"/>
      <point x="266" y="-28"/>
      <point x="554" y="-28" type="curve"/>
      <point x="662" y="-28"/>
      <point x="744" y="22"/>
      <point x="806" y="92" type="curve"/>
      <point x="806" y="0" type="line"/>
      <point x="1106" y="0" type="line"/>
      <point x="1106" y="1000" type="line"/>
      <point x="806" y="1000" type="line"/>
      <point x="806" y="500" type="line"/>
      <point x="806" y="368"/>
      <point x="738" y="262"/>
      <point x="608" y="262" type="curve"/>
      <point x="476" y="262"/>
      <point x="390" y="368"/>
      <point x="390" y="500" type="curve"/>
      <point x="390" y="1000" type="line"/>
      <point x="90" y="1000" type="line"/>
    </contour>
  </outline>
</glyph>
<glyph name="x" format="2">
  <advance width="1182"/>
  <unicode hex="0078"/>
  <outline>
    <contour>
      <point x="40" y="0" type="line"/>
      <point x="410" y="0" type="line"/>
      <point x="590" y="248" type="line"/>
      <point x="772" y="0" type="line"/>
      <point x="1142" y="0" type="line"/>
      <point x="776" y="502" type="line"/>
      <point x="1138" y="1000" type="line"/>
      <point x="768" y="1000" type="line"/>
      <point x="590" y="758" type="line"/>
      <point x="414" y="1000" type="line"/>
      <point x="44" y="1000" type="line"/>
      <point x="406" y="502" type="line"/>
    </contour>
  </outline>
</glyph>
<glyph name="y" format="2">
  <advance width="1256"/>
  <unicode hex="0079"/>
  <outline>
    <contour>
      <point x="856" y="1000" type="line"/>
      <point x="640" y="410" type="line"/>
      <point x="458" y="1000" type="line"/>
      <point x="130" y="1000" type="line"/>
      <point x="490" y="0" type="line"/>
      <point x="310" y="-500" type="line"/>
      <point x="628" y="-500" type="line"/>
      <point x="1176" y="1000" type="line"/>
    </contour>
  </outline>
</glyph>
<glyph name="bar" format="2">
  <advance width="540"/>
  <unicode hex="007C"/>
  <outline>
    <contour>
      <point x="120" y="1400" type="line"/>
      <point x="120" y="-302" type="line"/>
      <point x="420" y="-302" type="line"/>
      <point x="420" y="1400" type="line"/>
    </contour>
  </outline>
</glyph>
<glyph name="asciitilde" format="2">
  <advance width="1349"/>
  <unicode hex="007E"/>
  <outline>
    <contour>
      <point x="996" y="534" type="curve" smooth="yes"/>
      <point x="1188" y="534"/>
      <point x="1290" y="700"/>
      <point x="1266" y="888" type="curve"/>
      <point x="972" y="896" type="line"/>
      <point x="972" y="846"/>
      <point x="960" y="806"/>
      <point x="910" y="806" type="curve" smooth="yes"/>
      <point x="770" y="806"/>
      <point x="580" y="966"/>
      <point x="402" y="966" type="curve" smooth="yes"/>
      <point x="210" y="966"/>
      <point x="58" y="796"/>
      <point x="82" y="608" type="curve"/>
      <point x="376" y="600" type="line"/>
      <point x="376" y="642"/>
      <point x="384" y="686"/>
      <point x="434" y="686" type="curve" smooth="yes"/>
      <point x="574" y="686"/>
      <point x="818" y="534"/>
    </contour>
  </outline>
</glyph>
<glyph name="cent" format="2">
  <advance width="1092"/>
  <unicode hex="00A2"/>
  <outline>
    <contour>
      <point x="482" y="0" type="line"/>
      <point x="682" y="0" type="line"/>
      <point x="682" y="208" type="line"/>
      <point x="822" y="236"/>
      <point x="940" y="322"/>
      <point x="1012" y="440" type="curve"/>
      <point x="752" y="590" type="line"/>
      <point x="714" y="534"/>
      <point x="650" y="498"/>
      <point x="582" y="498" type="curve" smooth="yes"/>
      <point x="472" y="498"/>
      <point x="380" y="590"/>
      <point x="380" y="702" type="curve" smooth="yes"/>
      <point x="380" y="812"/>
      <point x="472" y="904"/>
      <point x="582" y="904" type="curve" smooth="yes"/>
      <point x="650" y="904"/>
      <point x="714" y="868"/>
      <point x="752" y="812" type="curve"/>
      <point x="1012" y="962" type="line"/>
      <point x="940" y="1080"/>
      <point x="822" y="1166"/>
      <point x="682" y="1194" type="curve"/>
      <point x="682" y="1400" type="line"/>
      <point x="482" y="1400" type="line"/>
      <point x="482" y="1194" type="line"/>
      <point x="254" y="1148"/>
      <point x="80" y="944"/>
      <point x="80" y="702" type="curve" smooth="yes"/>
      <point x="80" y="458"/>
      <point x="254" y="256"/>
      <point x="482" y="208" type="curve"/>
    </contour>
  </outline>
</glyph>
<glyph name="sterling" format="2">
  <advance width="1214"/>
  <unicode hex="00A3"/>
  <outline>
    <contour>
      <point x="104" y="0" type="line"/>
      <point x="1108" y="0" type="line"/>
      <point x="1108" y="300" type="line"/>
      <point x="648" y="300" type="line"/>
      <point x="650" y="312"/>
      <point x="658" y="346"/>
      <point x="658" y="376" type="curve" smooth="yes"/>
      <point x="658" y="400"/>
      <point x="656" y="424"/>
      <point x="656" y="444" type="curve"/>
      <point x="884" y="444" type="line"/>
      <point x="884" y="644" type="line"/>
      <point x="606" y="644" type="line"/>
      <point x="498" y="688"/>
      <point x="508" y="680"/>
      <point x="464" y="724" type="curve" smooth="yes"/>
      <point x="412" y="776"/>
      <point x="380" y="816"/>
      <point x="380" y="900" type="curve" smooth="yes"/>
      <point x="380" y="1024"/>
      <point x="482" y="1126"/>
      <point x="606" y="1126" type="curve" smooth="yes"/>
      <point x="732" y="1126"/>
      <point x="834" y="1024"/>
      <point x="834" y="900" type="curve"/>
      <point x="1134" y="900" type="line"/>
      <point x="1134" y="1190"/>
      <point x="896" y="1426"/>
      <point x="606" y="1426" type="curve" smooth="yes"/>
      <point x="318" y="1426"/>
      <point x="80" y="1188"/>
      <point x="80" y="900" type="curve" smooth="yes"/>
      <point x="80" y="784"/>
      <point x="118" y="734"/>
      <point x="186" y="644" type="curve"/>
      <point x="104" y="644" type="line"/>
      <point x="104" y="444" type="line"/>
      <point x="356" y="444" type="line"/>
      <point x="356" y="434"/>
      <point x="356" y="404"/>
      <point x="344" y="376" type="curve" smooth="yes"/>
      <point x="322" y="310"/>
      <point x="192" y="300"/>
      <point x="104" y="300" type="curve"/>
    </contour>
  </outline>
</glyph>
<glyph name="yen" format="2">
  <advance width="1432"/>
  <unicode hex="00A5"/>
  <outline>
    <contour>
      <point x="566" y="0" type="line"/>
      <point x="866" y="0" type="line"/>
      <point x="866" y="124" type="line"/>
      <point x="1080" y="124" type="line"/>
      <point x="1080" y="324" type="line"/>
      <point x="866" y="324" type="line"/>
      <point x="866" y="390" type="line"/>
      <point x="1080" y="390" type="line"/>
      <point x="1080" y="590" type="line"/>
      <point x="866" y="590" type="line"/>
      <point x="866" y="630" type="line"/>
      <point x="1352" y="1400" type="line"/>
      <point x="998" y="1400" type="line"/>
      <point x="716" y="956" type="line"/>
      <point x="434" y="1400" type="line"/>
      <point x="80" y="1400" type="line"/>
      <point x="566" y="630" type="line"/>
      <point x="566" y="590" type="line"/>
      <point x="352" y="590" type="line"/>
      <point x="352" y="390" type="line"/>
      <point x="566" y="390" type="line"/>
      <point x="566" y="324" type="line"/>
      <point x="352" y="324" type="line"/>
      <point x="352" y="124" type="line"/>
      <point x="566" y="124" type="line"/>
    </contour>
  </outline>
</glyph>
<glyph name="brokenbar" format="2">
  <advance width="540"/>
  <unicode hex="00A6"/>
  <outline>
    <contour>
      <point x="120" y="448" type="line"/>
      <point x="120" y="-302" type="line"/>
      <point x="420" y="-302" type="line"/>
      <point x="420" y="448" type="line"/>
    </contour>
    <contour>
      <point x="120" y="1400" type="line"/>
      <point x="120" y="650" type="line"/>
      <point x="420" y="650" type="line"/>
      <point x="420" y="1400" type="line"/>
    </contour>
  </outline>
</glyph>
<glyph name="logicalnot" format="2">
  <advance width="1050"/>
  <unicode hex="00AC"/>
  <outline>
    <contour>
      <point x="670" y="425" type="line"/>
      <point x="970" y="425" type="line"/>
      <point x="970" y="1075" type="line"/>
      <point x="80" y="1075" type="line"/>
      <point x="80" y="775" type="line"/>
      <point x="670" y="775" type="line"/>
    </contour>
  </outline>
</glyph>
<glyph name="plusminus" format="2">
  <advance width="1160"/>
  <unicode hex="00B1"/>
  <outline>
    <contour>
      <point x="430" y="500" type="line"/>
      <point x="730" y="500" type="line"/>
      <point x="730" y="850" type="line"/>
      <point x="1080" y="850" type="line"/>
      <point x="1080" y="1150" type="line"/>
      <point x="730" y="1150" type="line"/>
      <point x="730" y="1500" type="line"/>
      <point x="430" y="1500" type="line"/>
      <point x="430" y="1150" type="line"/>
      <point x="80" y="1150" type="line"/>
      <point x="80" y="850" type="line"/>
      <point x="430" y="850" type="line"/>
    </contour>
    <contour>
      <point x="80" y="0" type="line"/>
      <point x="1080" y="0" type="line"/>
      <point x="1080" y="300" type="line"/>
      <point x="80" y="300" type="line"/>
    </contour>
  </outline>
</glyph>
<glyph name="periodcentered" format="2">
  <advance width="460"/>
  <unicode hex="00B7"/>
  <outline>
    <contour>
      <point x="230" y="350" type="curve" smooth="yes"/>
      <point x="312" y="350"/>
      <point x="380" y="416"/>
      <point x="380" y="500" type="curve" smooth="yes"/>
      <point x="380" y="582"/>
      <point x="312" y="650"/>
      <point x="230" y="650" type="curve" smooth="yes"/>
      <point x="146" y="650"/>
      <point x="80" y="582"/>
      <point x="80" y="500" type="curve" smooth="yes"/>
      <point x="80" y="416"/>
      <point x="146" y="350"/>
    </contour>
  </outline>
</glyph>
<glyph name="questiondown" format="2">
  <advance width="1124"/>
  <unicode hex="00BF"/>
  <outline>
    <contour>
      <point x="562" y="-426" type="curve" smooth="yes"/>
      <point x="828" y="-426"/>
      <point x="1044" y="-210"/>
      <point x="1044" y="54" type="curve"/>
      <point x="744" y="54" type="line"/>
      <point x="744" y="-46"/>
      <point x="662" y="-126"/>
      <point x="562" y="-126" type="curve" smooth="yes"/>
      <point x="462" y="-126"/>
      <point x="380" y="-46"/>
      <point x="380" y="54" type="curve" smooth="yes"/>
      <point x="380" y="126"/>
      <point x="414" y="188"/>
      <point x="470" y="218" type="curve" smooth="yes"/>
      <point x="612" y="295"/>
      <point x="698" y="439"/>
      <point x="698" y="600" type="curve"/>
      <point x="398" y="600" type="line"/>
      <point x="398" y="549"/>
      <point x="372" y="505"/>
      <point x="328" y="482" type="curve" smooth="yes"/>
      <point x="174" y="400"/>
      <point x="80" y="236"/>
      <point x="80" y="54" type="curve" smooth="yes"/>
      <point x="80" y="-210"/>
      <point x="296" y="-426"/>
    </contour>
    <contour>
      <point x="532" y="726" type="curve" smooth="yes"/>
      <point x="616" y="726"/>
      <point x="682" y="792"/>
      <point x="682" y="874" type="curve" smooth="yes"/>
      <point x="682" y="960"/>
      <point x="616" y="1026"/>
      <point x="532" y="1026" type="curve" smooth="yes"/>
      <point x="450" y="1026"/>
      <point x="384" y="960"/>
      <point x="384" y="874" type="curve" smooth="yes"/>
      <point x="384" y="792"/>
      <point x="450" y="726"/>
    </contour>
  </outline>
</glyph>
<glyph name="Eth" format="2">
  <advance width="1402"/>
  <unicode hex="00D0"/>
  <outline>
    <contour>
      <point x="220" y="0" type="line"/>
      <point x="682" y="0" type="line" smooth="yes"/>
      <point x="1068" y="0"/>
      <point x="1382" y="314"/>
      <point x="1382" y="700" type="curve" smooth="yes"/>
      <point x="1382" y="1086"/>
      <point x="1068" y="1400"/>
      <point x="682" y="1400" type="curve" smooth="yes"/>
      <point x="220" y="1400" type="line"/>
      <point x="220" y="850" type="line"/>
      <point x="80" y="850" type="line"/>
      <point x="80" y="550" type="line"/>
      <point x="220" y="550" type="line"/>
    </contour>
    <contour>
      <point x="520" y="300" type="line"/>
      <point x="520" y="550" type="line"/>
      <point x="758" y="550" type="line"/>
      <point x="758" y="850" type="line"/>
      <point x="520" y="850" type="line"/>
      <point x="520" y="1100" type="line"/>
      <point x="682" y="1100" type="line" smooth="yes"/>
      <point x="902" y="1100"/>
      <point x="1082" y="920"/>
      <point x="1082" y="700" type="curve" smooth="yes"/>
      <point x="1082" y="480"/>
      <point x="902" y="300"/>
      <point x="682" y="300" type="curve" smooth="yes"/>
    </contour>
  </outline>
</glyph>
<glyph name="multiply" format="2">
  <advance width="1078"/>
  <unicode hex="00D7"/>
  <outline>
    <contour>
      <point x="292" y="290" type="line"/>
      <point x="538" y="538" type="line"/>
      <point x="786" y="290" type="line"/>
      <point x="998" y="502" type="line"/>
      <point x="750" y="750" type="line"/>
      <point x="998" y="998" type="line"/>
      <point x="786" y="1210" type="line"/>
      <point x="538" y="962" type="line"/>
      <point x="292" y="1210" type="line"/>
      <point x="80" y="998" type="line"/>
      <point x="326" y="750" type="line"/>
      <point x="80" y="502" type="line"/>
    </contour>
  </outline>
</glyph>
<glyph name="igrave" format="2">
  <advance width="540"/>
  <unicode hex="00EC"/>
  <outline>
    <contour>
      <point x="120" y="1000" type="line"/>
      <point x="120" y="0" type="line"/>
      <point x="420" y="0" type="line"/>
      <point x="420" y="1000" type="line"/>
    </contour>
    <component base="grave" xOffset="-350"/>
  </outline>
</glyph>
<glyph name="idieresis" format="2">
  <advance width="540"/>
  <unicode hex="00EF"/>
  <outline>
    <contour>
      <point x="120" y="1000" type="line"/>
      <point x="120" y="0" type="line"/>
      <point x="420" y="0" type="line"/>
      <point x="420" y="1000" type="line"/>
    </contour>
    <component base="dieresiscomb" xOffset="-500"/>
  </outline>
</glyph>
<glyph name="divide" format="2">
  <advance width="1160"/>
  <unicode hex="00F7"/>
  <outline>
    <contour>
      <point x="80" y="600" type="line"/>
      <point x="1080" y="600" type="line"/>
      <point x="1080" y="900" type="line"/>
      <point x="80" y="900" type="line"/>
    </contour>
    <contour>
      <point x="580" y="1260" type="curve"/>
      <point x="496" y="1260"/>
      <point x="430" y="1192"/>
      <point x="430" y="1110" type="curve"/>
      <point x="430" y="1028"/>
      <point x="496" y="960"/>
      <point x="580" y="960" type="curve"/>
      <point x="662" y="960"/>
      <point x="730" y="1028"/>
      <point x="730" y="1110" type="curve"/>
      <point x="730" y="1192"/>
      <point x="662" y="1260"/>
    </contour>
    <contour>
      <point x="580" y="540" type="curve"/>
      <point x="496" y="540"/>
      <point x="430" y="472"/>
      <point x="430" y="390" type="curve"/>
      <point x="430" y="308"/>
      <point x="496" y="240"/>
      <point x="580" y="240" type="curve"/>
      <point x="662" y="240"/>
      <point x="730" y="308"/>
      <point x="730" y="390" type="curve"/>
      <point x="730" y="472"/>
      <point x="662" y="540"/>
    </contour>
  </outline>
</glyph>
<glyph name="oslash" format="2">
  <advance width="1120"/>
  <unicode hex="00F8"/>
  <outline>
    <contour>
      <point x="360" y="-86" type="line"/>
      <point x="408" y="-2" type="line"/>
      <point x="456" y="-18"/>
      <point x="506" y="-26"/>
      <point x="560" y="-26" type="curve" smooth="yes"/>
      <point x="836" y="-26"/>
      <point x="1060" y="210"/>
      <point x="1060" y="500" type="curve" smooth="yes"/>
      <point x="1060" y="646"/>
      <point x="1004" y="778"/>
      <point x="914" y="874" type="curve"/>
      <point x="968" y="968" type="line"/>
      <point x="760" y="1088" type="line"/>
      <point x="710" y="1004" type="line"/>
      <point x="664" y="1020"/>
      <point x="612" y="1028"/>
      <point x="560" y="1028" type="curve" smooth="yes"/>
      <point x="284" y="1028"/>
      <point x="60" y="792"/>
      <point x="60" y="500" type="curve" smooth="yes"/>
      <point x="60" y="356"/>
      <point x="116" y="224"/>
      <point x="206" y="128" type="curve"/>
      <point x="152" y="34" type="line"/>
    </contour>
    <contour>
      <point x="354" y="380" type="line"/>
      <point x="342" y="412"/>
      <point x="336" y="444"/>
      <point x="336" y="482" type="curve" smooth="yes"/>
      <point x="336" y="632"/>
      <point x="442" y="762"/>
      <point x="576" y="766" type="curve"/>
    </contour>
    <contour>
      <point x="544" y="236" type="curve"/>
      <point x="766" y="622" type="line"/>
      <point x="776" y="590"/>
      <point x="784" y="556"/>
      <point x="784" y="518" type="curve" smooth="yes"/>
      <point x="784" y="368"/>
      <point x="682" y="240"/>
    </contour>
  </outline>
</glyph>
<glyph name="OE" format="2">
  <advance width="2056"/>
  <unicode hex="0152"/>
  <outline>
    <contour>
      <point x="750" y="-26" type="curve" smooth="yes"/>
      <point x="896" y="-26"/>
      <point x="1032" y="22"/>
      <point x="1144" y="104" type="curve"/>
      <point x="1144" y="0" type="line"/>
      <point x="1976" y="0" type="line"/>
      <point x="1976" y="300" type="line"/>
      <point x="1444" y="300" type="line"/>
      <point x="1444" y="550" type="line"/>
      <point x="1880" y="550" type="line"/>
      <point x="1880" y="850" type="line"/>
      <point x="1444" y="850" type="line"/>
      <point x="1444" y="1100" type="line"/>
      <point x="1976" y="1100" type="line"/>
      <point x="1976" y="1400" type="line"/>
      <point x="1144" y="1400" type="line"/>
      <point x="1144" y="1296" type="line"/>
      <point x="1032" y="1378"/>
      <point x="896" y="1426"/>
      <point x="750" y="1426" type="curve" smooth="yes"/>
      <point x="370" y="1426"/>
      <point x="60" y="1100"/>
      <point x="60" y="700" type="curve" smooth="yes"/>
      <point x="60" y="300"/>
      <point x="370" y="-26"/>
    </contour>
    <contour>
      <point x="750" y="274" type="curve" smooth="yes"/>
      <point x="536" y="274"/>
      <point x="360" y="466"/>
      <point x="360" y="700" type="curve" smooth="yes"/>
      <point x="360" y="934"/>
      <point x="536" y="1126"/>
      <point x="750" y="1126" type="curve" smooth="yes"/>
      <point x="964" y="1126"/>
      <point x="1140" y="934"/>
      <point x="1140" y="700" type="curve" smooth="yes"/>
      <point x="1140" y="466"/>
      <point x="964" y="274"/>
    </contour>
  </outline>
</glyph>
<glyph name="emdash" format="2">
  <advance width="2040"/>
  <unicode hex="2014"/>
  <outline>
    <contour>
      <point x="120" y="650" type="line"/>
      <point x="120" y="350" type="line"/>
      <point x="1920" y="350" type="line"/>
      <point x="1920" y="650" type="line"/>
    </contour>
  </outline>
</glyph>
<glyph name="quoteleft" format="2">
  <advance width="602"/>
  <unicode hex="2018"/>
  <unicode hex="02BB"/>
  <outline>
    <contour>
      <point x="120" y="878" type="line"/>
      <point x="420" y="878" type="line"/>
      <point x="482" y="1400" type="line"/>
      <point x="282" y="1400" type="line"/>
    </contour>
  </outline>
</glyph>
<glyph name="quoteright" format="2">
  <advance width="602"/>
  <unicode hex="2019"/>
  <unicode hex="2032"/>
  <outline>
    <contour>
      <point x="120" y="878" type="line"/>
      <point x="320" y="878" type="line"/>
      <point x="482" y="1400" type="line"/>
      <point x="182" y="1400" type="line"/>
    </contour>
  </outline>
</glyph>
<glyph name="bullet" format="2">
  <advance width="560"/>
  <unicode hex="2022"/>
  <outline>
    <contour>
      <point x="280" y="300" type="curve" smooth="yes"/>
      <point x="390" y="300"/>
      <point x="480" y="388"/>
      <point x="480" y="500" type="curve" smooth="yes"/>
      <point x="480" y="610"/>
      <point x="390" y="700"/>
      <point x="280" y="700" type="curve" smooth="yes"/>
      <point x="168" y="700"/>
      <point x="80" y="610"/>
      <point x="80" y="500" type="curve" smooth="yes"/>
      <point x="80" y="388"/>
      <point x="168" y="300"/>
    </contour>
  </outline>
</glyph>
<glyph name="guilsinglright" format="2">
  <advance width="840"/>
  <unicode hex="203A"/>
  <outline>
    <contour>
      <point x="120" y="162" type="line"/>
      <point x="420" y="162" type="line"/>
      <point x="720" y="502" type="line"/>
      <point x="420" y="840" type="line"/>
      <point x="120" y="840" type="line"/>
      <point x="418" y="502" type="line"/>
    </contour>
  </outline>
</glyph>
<glyph name="notequal" format="2">
  <advance width="1160"/>
  <unicode hex="2260"/>
  <outline>
    <contour>
      <point x="906" y="1332" type="line"/>
      <point x="594" y="1332" type="line"/>
      <point x="532" y="1122" type="line"/>
      <point x="80" y="1122" type="line"/>
      <point x="80" y="822" type="line"/>
      <point x="444" y="822" type="line"/>
      <point x="402" y="678" type="line"/>
      <point x="80" y="678" type="line"/>
      <point x="80" y="378" type="line"/>
      <point x="314" y="378" type="line"/>
      <point x="252" y="168" type="line"/>
      <point x="564" y="168" type="line"/>
      <point x="626" y="378" type="line"/>
      <point x="1080" y="378" type="line"/>
      <point x="1080" y="678" type="line"/>
      <point x="714" y="678" type="line"/>
      <point x="756" y="822" type="line"/>
      <point x="1080" y="822" type="line"/>
      <point x="1080" y="1122" type="line"/>
      <point x="844" y="1122" type="line"/>
    </contour>
  </outline>
</glyph>
<glyph name="lessequal" format="2">
  <advance width="1160"/>
  <unicode hex="2264"/>
  <outline>
    <contour>
      <point x="1080" y="428" type="line"/>
      <point x="1080" y="740" type="line"/>
      <point x="294" y="964" type="line"/>
      <point x="1080" y="1188" type="line"/>
      <point x="1080" y="1500" type="line"/>
      <point x="80" y="1214" type="line"/>
      <point x="80" y="712" type="line"/>
    </contour>
    <contour>
      <point x="80" y="0" type="line"/>
      <point x="1080" y="0" type="line"/>
      <point x="1080" y="300" type="line"/>
      <point x="80" y="300" type="line"/>
    </contour>
  </outline>
</glyph>
<glyph name="greaterequal" format="2">
  <advance width="1160"/>
  <unicode hex="2265"/>
  <outline>
    <contour>
      <point x="80" y="452" type="line"/>
      <point x="1080" y="724" type="line"/>
      <point x="1080" y="1226" type="line"/>
      <point x="80" y="1500" type="line"/>
      <point x="80" y="1188" type="line"/>
      <point x="866" y="976" type="line"/>
      <point x="80" y="764" type="line"/>
    </contour>
    <contour>
      <point x="80" y="0" type="line"/>
      <point x="1080" y="0" type="line"/>
      <point x="1080" y="300" type="line"/>
      <point x="80" y="300" type="line"/>
    </contour>
  </outline>
</glyph>
<glyph name="lozenge" format="2">
  <advance width="1200"/>
  <unicode hex="25CA"/>
  <outline>
    <contour>
      <point x="328" y="0" type="line"/>
      <point x="872" y="0" type="line"/>
      <point x="1140" y="702" type="line"/>
      <point x="874" y="1400" type="line"/>
      <point x="326" y="1400" type="line"/>
      <point x="60" y="702" type="line"/>
    </contour>
    <contour>
      <point x="600" y="134" type="line"/>
      <point x="376" y="702" type="line"/>
      <point x="600" y="1270" type="line"/>
      <point x="826" y="702" type="line"/>
    </contour>
  </outline>
</glyph>
<glyph name="eight.dnom" format="2">
  <advance width="530"/>
  <outline>
    <contour>
      <point x="264" y="-26" type="curve" smooth="yes"/>
      <point x="368" y="-26"/>
      <point x="450" y="54"/>
      <point x="450" y="156" type="curve" smooth="yes"/>
      <point x="450" y="202"/>
      <point x="434" y="244"/>
      <point x="408" y="276" type="curve"/>
      <point x="428" y="304"/>
      <point x="440" y="340"/>
      <point x="440" y="376" type="curve" smooth="yes"/>
      <point x="440" y="474"/>
      <point x="360" y="552"/>
      <point x="264" y="552" type="curve" smooth="yes"/>
      <point x="168" y="552"/>
      <point x="90" y="474"/>
      <point x="90" y="376" type="curve" smooth="yes"/>
      <point x="90" y="340"/>
      <point x="102" y="304"/>
      <point x="122" y="276" type="curve"/>
      <point x="96" y="244"/>
      <point x="80" y="202"/>
      <point x="80" y="156" type="curve" smooth="yes"/>
      <point x="80" y="54"/>
      <point x="162" y="-26"/>
    </contour>
    <contour>
      <point x="264" y="112" type="curve" smooth="yes"/>
      <point x="240" y="112"/>
      <point x="220" y="132"/>
      <point x="220" y="156" type="curve" smooth="yes"/>
      <point x="220" y="182"/>
      <point x="240" y="202"/>
      <point x="264" y="202" type="curve" smooth="yes"/>
      <point x="290" y="202"/>
      <point x="310" y="182"/>
      <point x="310" y="156" type="curve" smooth="yes"/>
      <point x="310" y="132"/>
      <point x="290" y="112"/>
    </contour>
    <contour>
      <point x="264" y="342" type="curve" smooth="yes"/>
      <point x="246" y="342"/>
      <point x="230" y="358"/>
      <point x="230" y="376" type="curve" smooth="yes"/>
      <point x="230" y="396"/>
      <point x="246" y="412"/>
      <point x="264" y="412" type="curve" smooth="yes"/>
      <point x="284" y="412"/>
      <point x="300" y="396"/>
      <point x="300" y="376" type="curve" smooth="yes"/>
      <point x="300" y="358"/>
      <point x="284" y="342"/>
    </contour>
  </outline>
</glyph>
<glyph name="eight.numr" format="2">
  <advance width="530"/>
  <outline>
    <contour>
      <point x="264" y="832" type="curve" smooth="yes"/>
      <point x="368" y="832"/>
      <point x="450" y="902"/>
      <point x="450" y="1004" type="curve" smooth="yes"/>
      <point x="450" y="1050"/>
      <point x="434" y="1092"/>
      <point x="408" y="1124" type="curve"/>
      <point x="428" y="1152"/>
      <point x="440" y="1188"/>
      <point x="440" y="1224" type="curve" smooth="yes"/>
      <point x="440" y="1322"/>
      <point x="360" y="1392"/>
      <point x="264" y="1392" type="curve" smooth="yes"/>
      <point x="168" y="1392"/>
      <point x="90" y="1322"/>
      <point x="90" y="1224" type="curve" smooth="yes"/>
      <point x="90" y="1188"/>
      <point x="102" y="1152"/>
      <point x="122" y="1124" type="curve"/>
      <point x="96" y="1092"/>
      <point x="80" y="1050"/>
      <point x="80" y="1004" type="curve" smooth="yes"/>
      <point x="80" y="902"/>
      <point x="162" y="832"/>
    </contour>
    <contour>
      <point x="264" y="960" type="curve" smooth="yes"/>
      <point x="240" y="960"/>
      <point x="220" y="980"/>
      <point x="220" y="1004" type="curve" smooth="yes"/>
      <point x="220" y="1030"/>
      <point x="240" y="1050"/>
      <point x="264" y="1050" type="curve" smooth="yes"/>
      <point x="290" y="1050"/>
      <point x="310" y="1030"/>
      <point x="310" y="1004" type="curve" smooth="yes"/>
      <point x="310" y="980"/>
      <point x="290" y="960"/>
    </contour>
    <contour>
      <point x="264" y="1190" type="curve" smooth="yes"/>
      <point x="246" y="1190"/>
      <point x="230" y="1206"/>
      <point x="230" y="1224" type="curve" smooth="yes"/>
      <point x="230" y="1244"/>
      <point x="246" y="1260"/>
      <point x="264" y="1260" type="curve" smooth="yes"/>
      <point x="284" y="1260"/>
      <point x="300" y="1244"/>
      <point x="300" y="1224" type="curve" smooth="yes"/>
      <point x="300" y="1206"/>
      <point x="284" y="1190"/>
    </contour>
  </outline>
</glyph>
<glyph name="five.dnom" format="2">
  <advance width="588"/>
  <outline>
    <contour>
      <point x="268" y="-26" type="curve"/>
      <point x="378" y="-26"/>
      <point x="468" y="62"/>
      <point x="468" y="172" type="curve"/>
      <point x="468" y="284"/>
      <point x="402" y="370"/>
      <point x="272" y="370" type="curve"/>
      <point x="252" y="370" type="line"/>
      <point x="252" y="404" type="line"/>
      <point x="408" y="404" type="line"/>
      <point x="408" y="526" type="line"/>
      <point x="124" y="526" type="line"/>
      <point x="94" y="230" type="line"/>
      <point x="268" y="230" type="line"/>
      <point x="302" y="230"/>
      <point x="328" y="204"/>
      <point x="328" y="172" type="curve"/>
      <point x="328" y="140"/>
      <point x="302" y="114"/>
      <point x="268" y="114" type="curve"/>
      <point x="236" y="114"/>
      <point x="210" y="140"/>
      <point x="210" y="172" type="curve"/>
      <point x="70" y="172" type="line"/>
      <point x="70" y="62"/>
      <point x="160" y="-26"/>
    </contour>
  </outline>
</glyph>
<glyph name="five.numr" format="2">
  <advance width="588"/>
  <outline>
    <contour>
      <point x="268" y="832" type="curve" smooth="yes"/>
      <point x="378" y="832"/>
      <point x="468" y="910"/>
      <point x="468" y="1020" type="curve" smooth="yes"/>
      <point x="468" y="1135"/>
      <point x="386" y="1218"/>
      <point x="252" y="1218" type="curve"/>
      <point x="252" y="1254" type="line"/>
      <point x="408" y="1254" type="line"/>
      <point x="408" y="1374" type="line"/>
      <point x="124" y="1374" type="line"/>
      <point x="96" y="1072" type="line"/>
      <point x="150" y="1078"/>
      <point x="240" y="1082"/>
      <point x="268" y="1078" type="curve" smooth="yes"/>
      <point x="302" y="1074"/>
      <point x="328" y="1052"/>
      <point x="328" y="1020" type="curve" smooth="yes"/>
      <point x="328" y="988"/>
      <point x="302" y="962"/>
      <point x="268" y="962" type="curve" smooth="yes"/>
      <point x="236" y="962"/>
      <point x="210" y="988"/>
      <point x="210" y="1020" type="curve"/>
      <point x="70" y="1020" type="line"/>
      <point x="70" y="910"/>
      <point x="160" y="832"/>
    </contour>
  </outline>
</glyph>
<glyph name="four.dnom" format="2">
  <advance width="580"/>
  <outline>
    <contour>
      <point x="276" y="0" type="line"/>
      <point x="416" y="0" type="line"/>
      <point x="416" y="72" type="line"/>
      <point x="460" y="72" type="line"/>
      <point x="460" y="212" type="line"/>
      <point x="416" y="212" type="line"/>
      <point x="416" y="526" type="line"/>
      <point x="262" y="526" type="line"/>
      <point x="80" y="240" type="line"/>
      <point x="80" y="72" type="line"/>
      <point x="276" y="72" type="line"/>
    </contour>
    <contour>
      <point x="216" y="212" type="line"/>
      <point x="290" y="330" type="line"/>
      <point x="290" y="212" type="line"/>
    </contour>
  </outline>
</glyph>
<glyph name="four.numr" format="2">
  <advance width="580"/>
  <outline>
    <contour>
      <point x="276" y="848" type="line"/>
      <point x="416" y="848" type="line"/>
      <point x="416" y="920" type="line"/>
      <point x="460" y="920" type="line"/>
      <point x="460" y="1060" type="line"/>
      <point x="416" y="1060" type="line"/>
      <point x="416" y="1374" type="line"/>
      <point x="262" y="1374" type="line"/>
      <point x="80" y="1088" type="line"/>
      <point x="80" y="920" type="line"/>
      <point x="276" y="920" type="line"/>
    </contour>
    <contour>
      <point x="216" y="1060" type="line"/>
      <point x="290" y="1178" type="line"/>
      <point x="290" y="1060" type="line"/>
    </contour>
  </outline>
</glyph>
<glyph name="nine.dnom" format="2">
  <advance width="548"/>
  <outline>
    <contour>
      <point x="108" y="0" type="line"/>
      <point x="270" y="0" type="line"/>
      <point x="422" y="262" type="line"/>
      <point x="440" y="294"/>
      <point x="448" y="326"/>
      <point x="448" y="358" type="curve" smooth="yes"/>
      <point x="448" y="460"/>
      <point x="366" y="552"/>
      <point x="254" y="552" type="curve" smooth="yes"/>
      <point x="146" y="552"/>
      <point x="60" y="464"/>
      <point x="60" y="358" type="curve" smooth="yes"/>
      <point x="60" y="274"/>
      <point x="114" y="192"/>
      <point x="206" y="170" type="curve"/>
    </contour>
    <contour>
      <point x="254" y="304" type="curve" smooth="yes"/>
      <point x="234" y="304"/>
      <point x="200" y="316"/>
      <point x="200" y="356" type="curve" smooth="yes"/>
      <point x="200" y="382"/>
      <point x="218" y="412"/>
      <point x="254" y="412" type="curve" smooth="yes"/>
      <point x="280" y="412"/>
      <point x="308" y="386"/>
      <point x="308" y="360" type="curve" smooth="yes"/>
      <point x="308" y="330"/>
      <point x="284" y="304"/>
    </contour>
  </outline>
</glyph>
<glyph name="nine.numr" format="2">
  <advance width="548"/>
  <outline>
    <contour>
      <point x="108" y="848" type="line"/>
      <point x="270" y="848" type="line"/>
      <point x="422" y="1110" type="line"/>
      <point x="440" y="1142"/>
      <point x="448" y="1174"/>
      <point x="448" y="1206" type="curve" smooth="yes"/>
      <point x="448" y="1308"/>
      <point x="366" y="1390"/>
      <point x="254" y="1390" type="curve" smooth="yes"/>
      <point x="146" y="1390"/>
      <point x="60" y="1312"/>
      <point x="60" y="1206" type="curve" smooth="yes"/>
      <point x="60" y="1122"/>
      <point x="114" y="1040"/>
      <point x="206" y="1018" type="curve"/>
    </contour>
    <contour>
      <point x="254" y="1152" type="curve" smooth="yes"/>
      <point x="234" y="1152"/>
      <point x="200" y="1164"/>
      <point x="200" y="1204" type="curve" smooth="yes"/>
      <point x="200" y="1230"/>
      <point x="218" y="1260"/>
      <point x="254" y="1260" type="curve" smooth="yes"/>
      <point x="280" y="1260"/>
      <point x="308" y="1234"/>
      <point x="308" y="1208" type="curve" smooth="yes"/>
      <point x="308" y="1178"/>
      <point x="284" y="1152"/>
    </contour>
  </outline>
</glyph>
<glyph name="one.dnom" format="2">
  <advance width="388"/>
  <outline>
    <contour>
      <point x="128" y="0" type="line"/>
      <point x="268" y="0" type="line"/>
      <point x="268" y="526" type="line"/>
      <point x="100" y="526" type="line"/>
      <point x="80" y="386" type="line"/>
      <point x="128" y="386" type="line"/>
    </contour>
  </outline>
</glyph>
<glyph name="one.numr" format="2">
  <advance width="388"/>
  <outline>
    <contour>
      <point x="128" y="848" type="line"/>
      <point x="268" y="848" type="line"/>
      <point x="268" y="1374" type="line"/>
      <point x="100" y="1374" type="line"/>
      <point x="80" y="1234" type="line"/>
      <point x="128" y="1234" type="line"/>
    </contour>
  </outline>
</glyph>
<glyph name="seven.dnom" format="2">
  <advance width="572"/>
  <outline>
    <contour>
      <point x="130" y="0" type="line"/>
      <point x="290" y="0" type="line"/>
      <point x="512" y="386" type="line"/>
      <point x="512" y="522" type="line"/>
      <point x="100" y="522" type="line"/>
      <point x="100" y="382" type="line"/>
      <point x="350" y="382" type="line"/>
    </contour>
  </outline>
</glyph>
<glyph name="seven.numr" format="2">
  <advance width="572"/>
  <outline>
    <contour>
      <point x="130" y="848" type="line"/>
      <point x="290" y="848" type="line"/>
      <point x="512" y="1236" type="line"/>
      <point x="512" y="1372" type="line"/>
      <point x="100" y="1372" type="line"/>
      <point x="100" y="1232" type="line"/>
      <point x="350" y="1232" type="line"/>
    </contour>
  </outline>
</glyph>
<glyph name="six.dnom" format="2">
  <advance width="568"/>
  <outline>
    <contour>
      <point x="274" y="-26" type="curve" smooth="yes"/>
      <point x="380" y="-26"/>
      <point x="468" y="58"/>
      <point x="468" y="166" type="curve" smooth="yes"/>
      <point x="468" y="254"/>
      <point x="418" y="324"/>
      <point x="320" y="356" type="curve"/>
      <point x="418" y="524" type="line"/>
      <point x="256" y="524" type="line"/>
      <point x="94" y="244"/>
      <point x="80" y="228"/>
      <point x="80" y="168" type="curve" smooth="yes"/>
      <point x="80" y="58"/>
      <point x="166" y="-26"/>
    </contour>
    <contour>
      <point x="274" y="114" type="curve" smooth="yes"/>
      <point x="254" y="114"/>
      <point x="228" y="122"/>
      <point x="222" y="154" type="curve" smooth="yes"/>
      <point x="216" y="182"/>
      <point x="232" y="220"/>
      <point x="274" y="220" type="curve" smooth="yes"/>
      <point x="300" y="220"/>
      <point x="320" y="204"/>
      <point x="326" y="180" type="curve" smooth="yes"/>
      <point x="334" y="146"/>
      <point x="308" y="114"/>
    </contour>
  </outline>
</glyph>
<glyph name="six.numr" format="2">
  <advance width="588"/>
  <outline>
    <contour>
      <point x="274" y="832" type="curve" smooth="yes"/>
      <point x="380" y="832"/>
      <point x="468" y="906"/>
      <point x="468" y="1014" type="curve" smooth="yes"/>
      <point x="468" y="1102"/>
      <point x="418" y="1172"/>
      <point x="320" y="1204" type="curve"/>
      <point x="418" y="1372" type="line"/>
      <point x="256" y="1372" type="line"/>
      <point x="94" y="1092"/>
      <point x="80" y="1076"/>
      <point x="80" y="1016" type="curve" smooth="yes"/>
      <point x="80" y="906"/>
      <point x="166" y="832"/>
    </contour>
    <contour>
      <point x="274" y="962" type="curve" smooth="yes"/>
      <point x="254" y="962"/>
      <point x="228" y="970"/>
      <point x="222" y="1002" type="curve" smooth="yes"/>
      <point x="214" y="1030"/>
      <point x="232" y="1068"/>
      <point x="274" y="1068" type="curve" smooth="yes"/>
      <point x="300" y="1068"/>
      <point x="320" y="1052"/>
      <point x="326" y="1028" type="curve" smooth="yes"/>
      <point x="334" y="994"/>
      <point x="308" y="962"/>
    </contour>
  </outline>
</glyph>
<glyph name="three.dnom" format="2">
  <advance width="490"/>
  <outline>
    <contour>
      <point x="246" y="-26" type="curve" smooth="yes"/>
      <point x="346" y="-26"/>
      <point x="430" y="58"/>
      <point x="430" y="160" type="curve" smooth="yes"/>
      <point x="430" y="202"/>
      <point x="416" y="246"/>
      <point x="386" y="278" type="curve"/>
      <point x="406" y="308"/>
      <point x="416" y="342"/>
      <point x="416" y="378" type="curve" smooth="yes"/>
      <point x="416" y="474"/>
      <point x="338" y="552"/>
      <point x="242" y="552" type="curve" smooth="yes"/>
      <point x="146" y="552"/>
      <point x="68" y="474"/>
      <point x="68" y="378" type="curve"/>
      <point x="208" y="378" type="line"/>
      <point x="208" y="396"/>
      <point x="224" y="412"/>
      <point x="242" y="412" type="curve" smooth="yes"/>
      <point x="260" y="412"/>
      <point x="276" y="396"/>
      <point x="276" y="378" type="curve" smooth="yes"/>
      <point x="276" y="354"/>
      <point x="262" y="318"/>
      <point x="198" y="318" type="curve"/>
      <point x="198" y="230" type="line"/>
      <point x="260" y="230"/>
      <point x="290" y="192"/>
      <point x="290" y="160" type="curve" smooth="yes"/>
      <point x="290" y="134"/>
      <point x="270" y="114"/>
      <point x="246" y="114" type="curve" smooth="yes"/>
      <point x="220" y="114"/>
      <point x="200" y="134"/>
      <point x="200" y="160" type="curve"/>
      <point x="60" y="160" type="line"/>
      <point x="60" y="58"/>
      <point x="144" y="-26"/>
    </contour>
  </outline>
</glyph>
<glyph name="three.numr" format="2">
  <advance width="490"/>
  <outline>
    <contour>
      <point x="246" y="832" type="curve" smooth="yes"/>
      <point x="346" y="832"/>
      <point x="430" y="906"/>
      <point x="430" y="1008" type="curve" smooth="yes"/>
      <point x="430" y="1050"/>
      <point x="416" y="1094"/>
      <point x="386" y="1126" type="curve"/>
      <point x="406" y="1156"/>
      <point x="416" y="1190"/>
      <point x="416" y="1226" type="curve" smooth="yes"/>
      <point x="416" y="1322"/>
      <point x="338" y="1390"/>
      <point x="242" y="1390" type="curve" smooth="yes"/>
      <point x="146" y="1390"/>
      <point x="68" y="1322"/>
      <point x="68" y="1226" type="curve"/>
      <point x="208" y="1226" type="line"/>
      <point x="208" y="1244"/>
      <point x="224" y="1260"/>
      <point x="242" y="1260" type="curve" smooth="yes"/>
      <point x="260" y="1260"/>
      <point x="276" y="1244"/>
      <point x="276" y="1226" type="curve" smooth="yes"/>
      <point x="276" y="1202"/>
      <point x="262" y="1166"/>
      <point x="198" y="1166" type="curve"/>
      <point x="198" y="1078" type="line"/>
      <point x="260" y="1078"/>
      <point x="290" y="1040"/>
      <point x="290" y="1008" type="curve" smooth="yes"/>
      <point x="290" y="982"/>
      <point x="270" y="962"/>
      <point x="246" y="962" type="curve" smooth="yes"/>
      <point x="220" y="962"/>
      <point x="200" y="982"/>
      <point x="200" y="1008" type="curve"/>
      <point x="60" y="1008" type="line"/>
      <point x="60" y="906"/>
      <point x="144" y="832"/>
    </contour>
  </outline>
</glyph>
<glyph name="two.dnom" format="2">
  <advance width="606"/>
  <outline>
    <contour>
      <point x="80" y="0" type="line"/>
      <point x="476" y="0" type="line"/>
      <point x="476" y="140" type="line"/>
      <point x="336" y="140" type="line"/>
      <point x="408" y="204"/>
      <point x="486" y="262"/>
      <point x="486" y="348" type="curve"/>
      <point x="486" y="460"/>
      <point x="396" y="552"/>
      <point x="284" y="552" type="curve"/>
      <point x="172" y="552"/>
      <point x="80" y="460"/>
      <point x="80" y="348" type="curve"/>
      <point x="220" y="348" type="line"/>
      <point x="220" y="384"/>
      <point x="248" y="412"/>
      <point x="284" y="412" type="curve"/>
      <point x="318" y="412"/>
      <point x="346" y="384"/>
      <point x="346" y="348" type="curve"/>
      <point x="286" y="234"/>
      <point x="176" y="188"/>
      <point x="80" y="122" type="curve"/>
    </contour>
  </outline>
</glyph>
<glyph name="two.numr" format="2">
  <advance width="606"/>
  <outline>
    <contour>
      <point x="80" y="848" type="line"/>
      <point x="476" y="848" type="line"/>
      <point x="476" y="988" type="line"/>
      <point x="336" y="988" type="line"/>
      <point x="408" y="1052"/>
      <point x="486" y="1110"/>
      <point x="486" y="1196" type="curve"/>
      <point x="486" y="1308"/>
      <point x="396" y="1390"/>
      <point x="284" y="1390" type="curve"/>
      <point x="172" y="1390"/>
      <point x="80" y="1308"/>
      <point x="80" y="1196" type="curve"/>
      <point x="220" y="1196" type="line"/>
      <point x="220" y="1232"/>
      <point x="248" y="1260"/>
      <point x="284" y="1260" type="curve"/>
      <point x="318" y="1260"/>
      <point x="346" y="1232"/>
      <point x="346" y="1196" type="curve"/>
      <point x="286" y="1082"/>
      <point x="176" y="1036"/>
      <point x="80" y="970" type="curve"/>
    </contour>
  </outline>
</glyph>
<glyph name="zero.dnom" format="2">
  <advance width="540"/>
  <outline>
    <contour>
      <point x="270" y="-26" type="curve"/>
      <point x="386" y="-26"/>
      <point x="480" y="104"/>
      <point x="480" y="264" type="curve"/>
      <point x="480" y="422"/>
      <point x="386" y="552"/>
      <point x="270" y="552" type="curve"/>
      <point x="154" y="552"/>
      <point x="60" y="422"/>
      <point x="60" y="264" type="curve"/>
      <point x="60" y="104"/>
      <point x="154" y="-26"/>
    </contour>
    <contour>
      <point x="270" y="114" type="curve"/>
      <point x="224" y="114"/>
      <point x="200" y="198"/>
      <point x="200" y="264" type="curve"/>
      <point x="200" y="322"/>
      <point x="220" y="412"/>
      <point x="270" y="412" type="curve"/>
      <point x="314" y="412"/>
      <point x="340" y="326"/>
      <point x="340" y="264" type="curve"/>
      <point x="340" y="210"/>
      <point x="316" y="114"/>
    </contour>
  </outline>
</glyph>
<glyph name="zero.numr" format="2">
  <advance width="540"/>
  <outline>
    <contour>
      <point x="270" y="832" type="curve"/>
      <point x="386" y="832"/>
      <point x="480" y="952"/>
      <point x="480" y="1112" type="curve"/>
      <point x="480" y="1270"/>
      <point x="386" y="1390"/>
      <point x="270" y="1390" type="curve"/>
      <point x="154" y="1390"/>
      <point x="60" y="1270"/>
      <point x="60" y="1112" type="curve"/>
      <point x="60" y="952"/>
      <point x="154" y="832"/>
    </contour>
    <contour>
      <point x="270" y="962" type="curve"/>
      <point x="224" y="962"/>
      <point x="200" y="1046"/>
      <point x="200" y="1112" type="curve"/>
      <point x="200" y="1170"/>
      <point x="220" y="1260"/>
      <point x="270" y="1260" type="curve"/>
      <point x="314" y="1260"/>
      <point x="340" y="1174"/>
      <point x="340" y="1112" type="curve"/>
      <point x="340" y="1058"/>
      <point x="316" y="962"/>
    </contour>
  </outline>
</glyph>
